<mxfile host="app.diagrams.net" modified="2024-03-01T18:03:05.670Z" agent="Mozilla/5.0 (Windows NT 10.0; Win64; x64) AppleWebKit/537.36 (KHTML, like Gecko) Chrome/122.0.0.0 Safari/537.36" etag="hkAKT6SsiGxEGeVwIFI7" version="23.1.7" type="device">
  <diagram name="1 oldal" id="piJF8_BZ4FbkOGlX9JzV">
    <mxGraphModel dx="2765" dy="1464" grid="1" gridSize="10" guides="1" tooltips="1" connect="1" arrows="1" fold="1" page="1" pageScale="1" pageWidth="827" pageHeight="1169" math="0" shadow="0">
      <root>
        <mxCell id="0" />
        <mxCell id="1" parent="0" />
        <mxCell id="Rtd217SQWqNiBjHWg9SM-339" value="" style="group" vertex="1" connectable="0" parent="1">
          <mxGeometry x="494" y="320.00333333333333" width="164" height="82" as="geometry" />
        </mxCell>
        <mxCell id="Rtd217SQWqNiBjHWg9SM-340" value="Weboldal üzemelése, adatok kezelése" style="rounded=0;whiteSpace=wrap;html=1;" vertex="1" parent="Rtd217SQWqNiBjHWg9SM-339">
          <mxGeometry width="164" height="82" as="geometry" />
        </mxCell>
        <mxCell id="Rtd217SQWqNiBjHWg9SM-341" value="" style="endArrow=none;html=1;rounded=0;exitX=0;exitY=0.25;exitDx=0;exitDy=0;entryX=1;entryY=0.25;entryDx=0;entryDy=0;" edge="1" parent="Rtd217SQWqNiBjHWg9SM-339" source="Rtd217SQWqNiBjHWg9SM-340" target="Rtd217SQWqNiBjHWg9SM-340">
          <mxGeometry width="50" height="50" relative="1" as="geometry">
            <mxPoint x="54.66666666666667" y="68.33333333333333" as="sourcePoint" />
            <mxPoint x="123" as="targetPoint" />
          </mxGeometry>
        </mxCell>
        <mxCell id="Rtd217SQWqNiBjHWg9SM-342" value="" style="endArrow=none;html=1;rounded=0;exitX=0.25;exitY=0;exitDx=0;exitDy=0;" edge="1" parent="Rtd217SQWqNiBjHWg9SM-339" source="Rtd217SQWqNiBjHWg9SM-340">
          <mxGeometry width="50" height="50" relative="1" as="geometry">
            <mxPoint x="41" y="-6.833333333333334" as="sourcePoint" />
            <mxPoint x="41" y="20.5" as="targetPoint" />
          </mxGeometry>
        </mxCell>
        <mxCell id="Rtd217SQWqNiBjHWg9SM-343" value="&lt;font face=&quot;Helvetica&quot; style=&quot;font-size: 12px;&quot;&gt;Hálózat, rendszer&lt;/font&gt;" style="text;html=1;align=center;verticalAlign=middle;resizable=0;points=[];autosize=1;strokeColor=none;fillColor=none;" vertex="1" parent="Rtd217SQWqNiBjHWg9SM-339">
          <mxGeometry x="39.99666666666667" y="-5.003333333333334" width="120" height="30" as="geometry" />
        </mxCell>
        <mxCell id="Rtd217SQWqNiBjHWg9SM-344" value="&lt;font style=&quot;font-size: 11px;&quot;&gt;1.1&lt;/font&gt;" style="text;html=1;align=center;verticalAlign=middle;resizable=0;points=[];autosize=1;strokeColor=none;fillColor=none;" vertex="1" parent="Rtd217SQWqNiBjHWg9SM-339">
          <mxGeometry x="3" y="-5" width="40" height="30" as="geometry" />
        </mxCell>
        <mxCell id="Rtd217SQWqNiBjHWg9SM-345" value="Felhasználó" style="ellipse;whiteSpace=wrap;html=1;" vertex="1" parent="1">
          <mxGeometry x="248" y="324" width="90" height="60" as="geometry" />
        </mxCell>
        <mxCell id="Rtd217SQWqNiBjHWg9SM-348" value="" style="group" vertex="1" connectable="0" parent="1">
          <mxGeometry x="248" y="472" width="90" height="60" as="geometry" />
        </mxCell>
        <mxCell id="Rtd217SQWqNiBjHWg9SM-346" value="Felhasználó" style="ellipse;whiteSpace=wrap;html=1;" vertex="1" parent="Rtd217SQWqNiBjHWg9SM-348">
          <mxGeometry width="90" height="60" as="geometry" />
        </mxCell>
        <mxCell id="Rtd217SQWqNiBjHWg9SM-347" value="" style="endArrow=none;html=1;rounded=0;exitX=0.007;exitY=0.544;exitDx=0;exitDy=0;exitPerimeter=0;entryX=0.5;entryY=0;entryDx=0;entryDy=0;" edge="1" parent="Rtd217SQWqNiBjHWg9SM-348" source="Rtd217SQWqNiBjHWg9SM-346" target="Rtd217SQWqNiBjHWg9SM-346">
          <mxGeometry width="50" height="50" relative="1" as="geometry">
            <mxPoint y="48" as="sourcePoint" />
            <mxPoint x="50" y="-2" as="targetPoint" />
          </mxGeometry>
        </mxCell>
        <mxCell id="Rtd217SQWqNiBjHWg9SM-349" value="Adatbázis" style="ellipse;whiteSpace=wrap;html=1;" vertex="1" parent="1">
          <mxGeometry x="815" y="332.5" width="85.5" height="57" as="geometry" />
        </mxCell>
        <mxCell id="Rtd217SQWqNiBjHWg9SM-350" value="" style="endArrow=classic;startArrow=classic;html=1;rounded=0;exitX=1;exitY=0.5;exitDx=0;exitDy=0;entryX=0;entryY=0.5;entryDx=0;entryDy=0;" edge="1" parent="1" source="Rtd217SQWqNiBjHWg9SM-340" target="Rtd217SQWqNiBjHWg9SM-349">
          <mxGeometry width="50" height="50" relative="1" as="geometry">
            <mxPoint x="674" y="380" as="sourcePoint" />
            <mxPoint x="724" y="330" as="targetPoint" />
          </mxGeometry>
        </mxCell>
        <mxCell id="Rtd217SQWqNiBjHWg9SM-351" value="Feladat, válasz" style="edgeLabel;html=1;align=center;verticalAlign=middle;resizable=0;points=[];" vertex="1" connectable="0" parent="Rtd217SQWqNiBjHWg9SM-350">
          <mxGeometry x="-0.1516" relative="1" as="geometry">
            <mxPoint x="6" y="-10" as="offset" />
          </mxGeometry>
        </mxCell>
        <mxCell id="Rtd217SQWqNiBjHWg9SM-352" value="" style="group" vertex="1" connectable="0" parent="1">
          <mxGeometry x="716" y="400" width="114" height="30.000000000000057" as="geometry" />
        </mxCell>
        <mxCell id="Rtd217SQWqNiBjHWg9SM-353" value="&amp;nbsp;D1" style="html=1;dashed=0;whiteSpace=wrap;shape=mxgraph.dfd.dataStoreID;align=left;spacingLeft=3;points=[[0,0],[0.5,0],[1,0],[0,0.5],[1,0.5],[0,1],[0.5,1],[1,1]];" vertex="1" parent="Rtd217SQWqNiBjHWg9SM-352">
          <mxGeometry width="100" height="30" as="geometry" />
        </mxCell>
        <mxCell id="Rtd217SQWqNiBjHWg9SM-354" value="" style="endArrow=none;html=1;rounded=0;entryX=0.078;entryY=0.005;entryDx=0;entryDy=0;entryPerimeter=0;exitX=0.077;exitY=1.001;exitDx=0;exitDy=0;exitPerimeter=0;" edge="1" parent="Rtd217SQWqNiBjHWg9SM-352">
          <mxGeometry width="50" height="50" relative="1" as="geometry">
            <mxPoint x="4.699999999999932" y="30.000000000000057" as="sourcePoint" />
            <mxPoint x="4.7999999999999545" y="0.12000000000000455" as="targetPoint" />
          </mxGeometry>
        </mxCell>
        <mxCell id="Rtd217SQWqNiBjHWg9SM-355" value="Felhasználók" style="text;html=1;align=center;verticalAlign=middle;resizable=0;points=[];autosize=1;strokeColor=none;fillColor=none;" vertex="1" parent="Rtd217SQWqNiBjHWg9SM-352">
          <mxGeometry x="24" width="90" height="30" as="geometry" />
        </mxCell>
        <mxCell id="Rtd217SQWqNiBjHWg9SM-356" value="" style="group" vertex="1" connectable="0" parent="1">
          <mxGeometry x="716" y="450" width="114" height="30.000000000000057" as="geometry" />
        </mxCell>
        <mxCell id="Rtd217SQWqNiBjHWg9SM-357" value="&amp;nbsp;D2" style="html=1;dashed=0;whiteSpace=wrap;shape=mxgraph.dfd.dataStoreID;align=left;spacingLeft=3;points=[[0,0],[0.5,0],[1,0],[0,0.5],[1,0.5],[0,1],[0.5,1],[1,1]];" vertex="1" parent="Rtd217SQWqNiBjHWg9SM-356">
          <mxGeometry width="100" height="30" as="geometry" />
        </mxCell>
        <mxCell id="Rtd217SQWqNiBjHWg9SM-358" value="" style="endArrow=none;html=1;rounded=0;entryX=0.078;entryY=0.005;entryDx=0;entryDy=0;entryPerimeter=0;exitX=0.077;exitY=1.001;exitDx=0;exitDy=0;exitPerimeter=0;" edge="1" parent="Rtd217SQWqNiBjHWg9SM-356">
          <mxGeometry width="50" height="50" relative="1" as="geometry">
            <mxPoint x="4.699999999999932" y="30.000000000000057" as="sourcePoint" />
            <mxPoint x="4.7999999999999545" y="0.12000000000000455" as="targetPoint" />
          </mxGeometry>
        </mxCell>
        <mxCell id="Rtd217SQWqNiBjHWg9SM-359" value="Kapcsolatok" style="text;html=1;align=center;verticalAlign=middle;resizable=0;points=[];autosize=1;strokeColor=none;fillColor=none;" vertex="1" parent="Rtd217SQWqNiBjHWg9SM-356">
          <mxGeometry x="24" width="90" height="30" as="geometry" />
        </mxCell>
        <mxCell id="Rtd217SQWqNiBjHWg9SM-360" value="" style="group" vertex="1" connectable="0" parent="1">
          <mxGeometry x="716" y="500" width="104" height="30.000000000000057" as="geometry" />
        </mxCell>
        <mxCell id="Rtd217SQWqNiBjHWg9SM-361" value="&amp;nbsp;D3" style="html=1;dashed=0;whiteSpace=wrap;shape=mxgraph.dfd.dataStoreID;align=left;spacingLeft=3;points=[[0,0],[0.5,0],[1,0],[0,0.5],[1,0.5],[0,1],[0.5,1],[1,1]];" vertex="1" parent="Rtd217SQWqNiBjHWg9SM-360">
          <mxGeometry width="100" height="30" as="geometry" />
        </mxCell>
        <mxCell id="Rtd217SQWqNiBjHWg9SM-362" value="" style="endArrow=none;html=1;rounded=0;entryX=0.078;entryY=0.005;entryDx=0;entryDy=0;entryPerimeter=0;exitX=0.077;exitY=1.001;exitDx=0;exitDy=0;exitPerimeter=0;" edge="1" parent="Rtd217SQWqNiBjHWg9SM-360">
          <mxGeometry width="50" height="50" relative="1" as="geometry">
            <mxPoint x="4.699999999999932" y="30.000000000000057" as="sourcePoint" />
            <mxPoint x="4.7999999999999545" y="0.12000000000000455" as="targetPoint" />
          </mxGeometry>
        </mxCell>
        <mxCell id="Rtd217SQWqNiBjHWg9SM-363" value="Üzenetek" style="text;html=1;align=center;verticalAlign=middle;resizable=0;points=[];autosize=1;strokeColor=none;fillColor=none;" vertex="1" parent="Rtd217SQWqNiBjHWg9SM-360">
          <mxGeometry x="34" width="70" height="30" as="geometry" />
        </mxCell>
        <mxCell id="Rtd217SQWqNiBjHWg9SM-364" value="" style="group" vertex="1" connectable="0" parent="1">
          <mxGeometry x="716" y="550" width="104" height="30.000000000000057" as="geometry" />
        </mxCell>
        <mxCell id="Rtd217SQWqNiBjHWg9SM-365" value="&amp;nbsp;D4" style="html=1;dashed=0;whiteSpace=wrap;shape=mxgraph.dfd.dataStoreID;align=left;spacingLeft=3;points=[[0,0],[0.5,0],[1,0],[0,0.5],[1,0.5],[0,1],[0.5,1],[1,1]];" vertex="1" parent="Rtd217SQWqNiBjHWg9SM-364">
          <mxGeometry width="100" height="30" as="geometry" />
        </mxCell>
        <mxCell id="Rtd217SQWqNiBjHWg9SM-366" value="" style="endArrow=none;html=1;rounded=0;entryX=0.078;entryY=0.005;entryDx=0;entryDy=0;entryPerimeter=0;exitX=0.077;exitY=1.001;exitDx=0;exitDy=0;exitPerimeter=0;" edge="1" parent="Rtd217SQWqNiBjHWg9SM-364">
          <mxGeometry width="50" height="50" relative="1" as="geometry">
            <mxPoint x="4.699999999999932" y="30.000000000000057" as="sourcePoint" />
            <mxPoint x="4.7999999999999545" y="0.12000000000000455" as="targetPoint" />
          </mxGeometry>
        </mxCell>
        <mxCell id="Rtd217SQWqNiBjHWg9SM-367" value="Posztok" style="text;html=1;align=center;verticalAlign=middle;resizable=0;points=[];autosize=1;strokeColor=none;fillColor=none;" vertex="1" parent="Rtd217SQWqNiBjHWg9SM-364">
          <mxGeometry x="34" width="70" height="30" as="geometry" />
        </mxCell>
        <mxCell id="Rtd217SQWqNiBjHWg9SM-372" value="" style="group" vertex="1" connectable="0" parent="1">
          <mxGeometry x="896" y="550" width="109" height="30.000000000000057" as="geometry" />
        </mxCell>
        <mxCell id="Rtd217SQWqNiBjHWg9SM-373" value="&amp;nbsp;D8" style="html=1;dashed=0;whiteSpace=wrap;shape=mxgraph.dfd.dataStoreID;align=left;spacingLeft=3;points=[[0,0],[0.5,0],[1,0],[0,0.5],[1,0.5],[0,1],[0.5,1],[1,1]];" vertex="1" parent="Rtd217SQWqNiBjHWg9SM-372">
          <mxGeometry width="100" height="30" as="geometry" />
        </mxCell>
        <mxCell id="Rtd217SQWqNiBjHWg9SM-374" value="" style="endArrow=none;html=1;rounded=0;entryX=0.078;entryY=0.005;entryDx=0;entryDy=0;entryPerimeter=0;exitX=0.077;exitY=1.001;exitDx=0;exitDy=0;exitPerimeter=0;" edge="1" parent="Rtd217SQWqNiBjHWg9SM-372">
          <mxGeometry width="50" height="50" relative="1" as="geometry">
            <mxPoint x="4.699999999999932" y="30.000000000000057" as="sourcePoint" />
            <mxPoint x="4.7999999999999545" y="0.12000000000000455" as="targetPoint" />
          </mxGeometry>
        </mxCell>
        <mxCell id="Rtd217SQWqNiBjHWg9SM-375" value="Fényképek" style="text;html=1;align=center;verticalAlign=middle;resizable=0;points=[];autosize=1;strokeColor=none;fillColor=none;" vertex="1" parent="Rtd217SQWqNiBjHWg9SM-372">
          <mxGeometry x="29" width="80" height="30" as="geometry" />
        </mxCell>
        <mxCell id="Rtd217SQWqNiBjHWg9SM-376" value="" style="group" vertex="1" connectable="0" parent="1">
          <mxGeometry x="896" y="400" width="114" height="30.000000000000057" as="geometry" />
        </mxCell>
        <mxCell id="Rtd217SQWqNiBjHWg9SM-377" value="&amp;nbsp;D5" style="html=1;dashed=0;whiteSpace=wrap;shape=mxgraph.dfd.dataStoreID;align=left;spacingLeft=3;points=[[0,0],[0.5,0],[1,0],[0,0.5],[1,0.5],[0,1],[0.5,1],[1,1]];" vertex="1" parent="Rtd217SQWqNiBjHWg9SM-376">
          <mxGeometry width="100" height="30" as="geometry" />
        </mxCell>
        <mxCell id="Rtd217SQWqNiBjHWg9SM-378" value="" style="endArrow=none;html=1;rounded=0;entryX=0.078;entryY=0.005;entryDx=0;entryDy=0;entryPerimeter=0;exitX=0.077;exitY=1.001;exitDx=0;exitDy=0;exitPerimeter=0;" edge="1" parent="Rtd217SQWqNiBjHWg9SM-376">
          <mxGeometry width="50" height="50" relative="1" as="geometry">
            <mxPoint x="4.699999999999932" y="30.000000000000057" as="sourcePoint" />
            <mxPoint x="4.7999999999999545" y="0.12000000000000455" as="targetPoint" />
          </mxGeometry>
        </mxCell>
        <mxCell id="Rtd217SQWqNiBjHWg9SM-379" value="Kommentek" style="text;html=1;align=center;verticalAlign=middle;resizable=0;points=[];autosize=1;strokeColor=none;fillColor=none;" vertex="1" parent="Rtd217SQWqNiBjHWg9SM-376">
          <mxGeometry x="24" width="90" height="30" as="geometry" />
        </mxCell>
        <mxCell id="Rtd217SQWqNiBjHWg9SM-380" value="" style="group" vertex="1" connectable="0" parent="1">
          <mxGeometry x="896" y="450" width="109" height="30.000000000000057" as="geometry" />
        </mxCell>
        <mxCell id="Rtd217SQWqNiBjHWg9SM-381" value="&amp;nbsp;D6" style="html=1;dashed=0;whiteSpace=wrap;shape=mxgraph.dfd.dataStoreID;align=left;spacingLeft=3;points=[[0,0],[0.5,0],[1,0],[0,0.5],[1,0.5],[0,1],[0.5,1],[1,1]];" vertex="1" parent="Rtd217SQWqNiBjHWg9SM-380">
          <mxGeometry width="100" height="30" as="geometry" />
        </mxCell>
        <mxCell id="Rtd217SQWqNiBjHWg9SM-382" value="" style="endArrow=none;html=1;rounded=0;entryX=0.078;entryY=0.005;entryDx=0;entryDy=0;entryPerimeter=0;exitX=0.077;exitY=1.001;exitDx=0;exitDy=0;exitPerimeter=0;" edge="1" parent="Rtd217SQWqNiBjHWg9SM-380">
          <mxGeometry width="50" height="50" relative="1" as="geometry">
            <mxPoint x="4.699999999999932" y="30.000000000000057" as="sourcePoint" />
            <mxPoint x="4.7999999999999545" y="0.12000000000000455" as="targetPoint" />
          </mxGeometry>
        </mxCell>
        <mxCell id="Rtd217SQWqNiBjHWg9SM-383" value="Csoportok" style="text;html=1;align=center;verticalAlign=middle;resizable=0;points=[];autosize=1;strokeColor=none;fillColor=none;" vertex="1" parent="Rtd217SQWqNiBjHWg9SM-380">
          <mxGeometry x="29" width="80" height="30" as="geometry" />
        </mxCell>
        <mxCell id="Rtd217SQWqNiBjHWg9SM-384" value="" style="endArrow=classic;html=1;rounded=0;exitX=0.5;exitY=1;exitDx=0;exitDy=0;" edge="1" parent="1">
          <mxGeometry width="50" height="50" relative="1" as="geometry">
            <mxPoint x="858" y="430" as="sourcePoint" />
            <mxPoint x="926" y="450" as="targetPoint" />
            <Array as="points">
              <mxPoint x="858" y="450" />
            </Array>
          </mxGeometry>
        </mxCell>
        <mxCell id="Rtd217SQWqNiBjHWg9SM-385" value="" style="endArrow=classic;html=1;rounded=0;entryX=0.061;entryY=0;entryDx=0;entryDy=0;entryPerimeter=0;exitX=0.5;exitY=1;exitDx=0;exitDy=0;" edge="1" parent="1" source="Rtd217SQWqNiBjHWg9SM-349">
          <mxGeometry width="50" height="50" relative="1" as="geometry">
            <mxPoint x="858" y="400" as="sourcePoint" />
            <mxPoint x="745" y="450" as="targetPoint" />
            <Array as="points">
              <mxPoint x="858" y="450" />
            </Array>
          </mxGeometry>
        </mxCell>
        <mxCell id="Rtd217SQWqNiBjHWg9SM-392" value="" style="group" vertex="1" connectable="0" parent="1">
          <mxGeometry x="896" y="500" width="109" height="30.000000000000057" as="geometry" />
        </mxCell>
        <mxCell id="Rtd217SQWqNiBjHWg9SM-393" value="&amp;nbsp;D7" style="html=1;dashed=0;whiteSpace=wrap;shape=mxgraph.dfd.dataStoreID;align=left;spacingLeft=3;points=[[0,0],[0.5,0],[1,0],[0,0.5],[1,0.5],[0,1],[0.5,1],[1,1]];" vertex="1" parent="Rtd217SQWqNiBjHWg9SM-392">
          <mxGeometry width="100" height="30" as="geometry" />
        </mxCell>
        <mxCell id="Rtd217SQWqNiBjHWg9SM-394" value="" style="endArrow=none;html=1;rounded=0;entryX=0.078;entryY=0.005;entryDx=0;entryDy=0;entryPerimeter=0;exitX=0.077;exitY=1.001;exitDx=0;exitDy=0;exitPerimeter=0;" edge="1" parent="Rtd217SQWqNiBjHWg9SM-392">
          <mxGeometry width="50" height="50" relative="1" as="geometry">
            <mxPoint x="4.699999999999932" y="30.000000000000057" as="sourcePoint" />
            <mxPoint x="4.7999999999999545" y="0.12000000000000455" as="targetPoint" />
          </mxGeometry>
        </mxCell>
        <mxCell id="Rtd217SQWqNiBjHWg9SM-395" value="Albumok" style="text;html=1;align=center;verticalAlign=middle;resizable=0;points=[];autosize=1;strokeColor=none;fillColor=none;" vertex="1" parent="Rtd217SQWqNiBjHWg9SM-392">
          <mxGeometry x="34" width="70" height="30" as="geometry" />
        </mxCell>
        <mxCell id="Rtd217SQWqNiBjHWg9SM-386" value="" style="endArrow=classic;html=1;rounded=0;exitX=0.5;exitY=1;exitDx=0;exitDy=0;" edge="1" parent="1">
          <mxGeometry width="50" height="50" relative="1" as="geometry">
            <mxPoint x="858" y="480" as="sourcePoint" />
            <mxPoint x="926" y="500" as="targetPoint" />
            <Array as="points">
              <mxPoint x="858" y="500" />
            </Array>
          </mxGeometry>
        </mxCell>
        <mxCell id="Rtd217SQWqNiBjHWg9SM-387" value="" style="endArrow=classic;html=1;rounded=0;entryX=0.061;entryY=0;entryDx=0;entryDy=0;entryPerimeter=0;" edge="1" parent="1">
          <mxGeometry width="50" height="50" relative="1" as="geometry">
            <mxPoint x="858" y="450" as="sourcePoint" />
            <mxPoint x="745" y="500" as="targetPoint" />
            <Array as="points">
              <mxPoint x="858" y="500" />
            </Array>
          </mxGeometry>
        </mxCell>
        <mxCell id="Rtd217SQWqNiBjHWg9SM-388" value="" style="endArrow=classic;html=1;rounded=0;exitX=0.5;exitY=1;exitDx=0;exitDy=0;" edge="1" parent="1">
          <mxGeometry width="50" height="50" relative="1" as="geometry">
            <mxPoint x="858" y="530" as="sourcePoint" />
            <mxPoint x="926" y="550" as="targetPoint" />
            <Array as="points">
              <mxPoint x="858" y="550" />
            </Array>
          </mxGeometry>
        </mxCell>
        <mxCell id="Rtd217SQWqNiBjHWg9SM-389" value="" style="endArrow=classic;html=1;rounded=0;entryX=0.061;entryY=0;entryDx=0;entryDy=0;entryPerimeter=0;" edge="1" parent="1">
          <mxGeometry width="50" height="50" relative="1" as="geometry">
            <mxPoint x="858" y="500" as="sourcePoint" />
            <mxPoint x="745" y="550" as="targetPoint" />
            <Array as="points">
              <mxPoint x="858" y="550" />
            </Array>
          </mxGeometry>
        </mxCell>
        <mxCell id="Rtd217SQWqNiBjHWg9SM-390" value="" style="endArrow=classic;html=1;rounded=0;exitX=0.5;exitY=1;exitDx=0;exitDy=0;entryX=0.07;entryY=0.009;entryDx=0;entryDy=0;entryPerimeter=0;" edge="1" parent="1" source="Rtd217SQWqNiBjHWg9SM-349" target="Rtd217SQWqNiBjHWg9SM-355">
          <mxGeometry width="50" height="50" relative="1" as="geometry">
            <mxPoint x="844" y="450" as="sourcePoint" />
            <mxPoint x="894" y="400" as="targetPoint" />
            <Array as="points">
              <mxPoint x="858" y="400" />
            </Array>
          </mxGeometry>
        </mxCell>
        <mxCell id="Rtd217SQWqNiBjHWg9SM-391" value="" style="endArrow=classic;html=1;rounded=0;exitX=0.5;exitY=1;exitDx=0;exitDy=0;entryX=0.296;entryY=-0.014;entryDx=0;entryDy=0;entryPerimeter=0;" edge="1" parent="1" source="Rtd217SQWqNiBjHWg9SM-349" target="Rtd217SQWqNiBjHWg9SM-377">
          <mxGeometry width="50" height="50" relative="1" as="geometry">
            <mxPoint x="864" y="430" as="sourcePoint" />
            <mxPoint x="914" y="380" as="targetPoint" />
            <Array as="points">
              <mxPoint x="858" y="400" />
            </Array>
          </mxGeometry>
        </mxCell>
        <mxCell id="Rtd217SQWqNiBjHWg9SM-399" value="Módosítás, törlés, feladat, válasz" style="text;html=1;align=center;verticalAlign=middle;resizable=0;points=[];autosize=1;strokeColor=none;fillColor=none;rotation=-90;" vertex="1" parent="1">
          <mxGeometry x="744" y="472" width="200" height="30" as="geometry" />
        </mxCell>
        <mxCell id="Rtd217SQWqNiBjHWg9SM-400" value="&lt;font style=&quot;font-size: 32px;&quot;&gt;Szerver&lt;/font&gt;" style="text;html=1;align=center;verticalAlign=middle;whiteSpace=wrap;rounded=0;" vertex="1" parent="1">
          <mxGeometry x="548" y="110" width="60" height="30" as="geometry" />
        </mxCell>
        <mxCell id="Rtd217SQWqNiBjHWg9SM-401" value="Admin" style="ellipse;whiteSpace=wrap;html=1;" vertex="1" parent="1">
          <mxGeometry x="531" y="190" width="90" height="60" as="geometry" />
        </mxCell>
        <mxCell id="Rtd217SQWqNiBjHWg9SM-404" value="" style="group" vertex="1" connectable="0" parent="1">
          <mxGeometry x="384" y="630.0033333333333" width="164" height="82" as="geometry" />
        </mxCell>
        <mxCell id="Rtd217SQWqNiBjHWg9SM-405" value="Felhasználók összesége" style="rounded=0;whiteSpace=wrap;html=1;" vertex="1" parent="Rtd217SQWqNiBjHWg9SM-404">
          <mxGeometry width="164" height="82" as="geometry" />
        </mxCell>
        <mxCell id="Rtd217SQWqNiBjHWg9SM-406" value="" style="endArrow=none;html=1;rounded=0;exitX=0;exitY=0.25;exitDx=0;exitDy=0;entryX=1;entryY=0.25;entryDx=0;entryDy=0;" edge="1" parent="Rtd217SQWqNiBjHWg9SM-404" source="Rtd217SQWqNiBjHWg9SM-405" target="Rtd217SQWqNiBjHWg9SM-405">
          <mxGeometry width="50" height="50" relative="1" as="geometry">
            <mxPoint x="54.66666666666667" y="68.33333333333333" as="sourcePoint" />
            <mxPoint x="123" as="targetPoint" />
          </mxGeometry>
        </mxCell>
        <mxCell id="Rtd217SQWqNiBjHWg9SM-407" value="" style="endArrow=none;html=1;rounded=0;exitX=0.25;exitY=0;exitDx=0;exitDy=0;" edge="1" parent="Rtd217SQWqNiBjHWg9SM-404" source="Rtd217SQWqNiBjHWg9SM-405">
          <mxGeometry width="50" height="50" relative="1" as="geometry">
            <mxPoint x="41" y="-6.833333333333334" as="sourcePoint" />
            <mxPoint x="41" y="20.5" as="targetPoint" />
          </mxGeometry>
        </mxCell>
        <mxCell id="Rtd217SQWqNiBjHWg9SM-408" value="&lt;font face=&quot;Helvetica&quot; style=&quot;font-size: 12px;&quot;&gt;Csoportok&lt;/font&gt;" style="text;html=1;align=center;verticalAlign=middle;resizable=0;points=[];autosize=1;strokeColor=none;fillColor=none;" vertex="1" parent="Rtd217SQWqNiBjHWg9SM-404">
          <mxGeometry x="59.99666666666667" y="-5.003333333333334" width="80" height="30" as="geometry" />
        </mxCell>
        <mxCell id="Rtd217SQWqNiBjHWg9SM-409" value="&lt;font style=&quot;font-size: 11px;&quot;&gt;2.2&lt;/font&gt;" style="text;html=1;align=center;verticalAlign=middle;resizable=0;points=[];autosize=1;strokeColor=none;fillColor=none;" vertex="1" parent="Rtd217SQWqNiBjHWg9SM-404">
          <mxGeometry x="3" y="-5" width="40" height="30" as="geometry" />
        </mxCell>
        <mxCell id="Rtd217SQWqNiBjHWg9SM-416" value="" style="group" vertex="1" connectable="0" parent="1">
          <mxGeometry x="558" y="630.0033333333333" width="164" height="82" as="geometry" />
        </mxCell>
        <mxCell id="Rtd217SQWqNiBjHWg9SM-417" value="Felhasználók albumjai" style="rounded=0;whiteSpace=wrap;html=1;" vertex="1" parent="Rtd217SQWqNiBjHWg9SM-416">
          <mxGeometry width="164" height="82" as="geometry" />
        </mxCell>
        <mxCell id="Rtd217SQWqNiBjHWg9SM-418" value="" style="endArrow=none;html=1;rounded=0;exitX=0;exitY=0.25;exitDx=0;exitDy=0;entryX=1;entryY=0.25;entryDx=0;entryDy=0;" edge="1" parent="Rtd217SQWqNiBjHWg9SM-416" source="Rtd217SQWqNiBjHWg9SM-417" target="Rtd217SQWqNiBjHWg9SM-417">
          <mxGeometry width="50" height="50" relative="1" as="geometry">
            <mxPoint x="54.66666666666667" y="68.33333333333333" as="sourcePoint" />
            <mxPoint x="123" as="targetPoint" />
          </mxGeometry>
        </mxCell>
        <mxCell id="Rtd217SQWqNiBjHWg9SM-419" value="" style="endArrow=none;html=1;rounded=0;exitX=0.25;exitY=0;exitDx=0;exitDy=0;" edge="1" parent="Rtd217SQWqNiBjHWg9SM-416" source="Rtd217SQWqNiBjHWg9SM-417">
          <mxGeometry width="50" height="50" relative="1" as="geometry">
            <mxPoint x="41" y="-6.833333333333334" as="sourcePoint" />
            <mxPoint x="41" y="20.5" as="targetPoint" />
          </mxGeometry>
        </mxCell>
        <mxCell id="Rtd217SQWqNiBjHWg9SM-420" value="&lt;font face=&quot;Helvetica&quot; style=&quot;font-size: 12px;&quot;&gt;Albumok&lt;/font&gt;" style="text;html=1;align=center;verticalAlign=middle;resizable=0;points=[];autosize=1;strokeColor=none;fillColor=none;" vertex="1" parent="Rtd217SQWqNiBjHWg9SM-416">
          <mxGeometry x="64.99666666666667" y="-5.003333333333334" width="70" height="30" as="geometry" />
        </mxCell>
        <mxCell id="Rtd217SQWqNiBjHWg9SM-421" value="&lt;font style=&quot;font-size: 11px;&quot;&gt;2.3&lt;/font&gt;" style="text;html=1;align=center;verticalAlign=middle;resizable=0;points=[];autosize=1;strokeColor=none;fillColor=none;" vertex="1" parent="Rtd217SQWqNiBjHWg9SM-416">
          <mxGeometry x="3" y="-5" width="40" height="30" as="geometry" />
        </mxCell>
        <mxCell id="Rtd217SQWqNiBjHWg9SM-428" value="" style="group" vertex="1" connectable="0" parent="1">
          <mxGeometry x="210" y="630.0033333333333" width="164" height="82" as="geometry" />
        </mxCell>
        <mxCell id="Rtd217SQWqNiBjHWg9SM-429" value="Szöveget jelenít meg" style="rounded=0;whiteSpace=wrap;html=1;" vertex="1" parent="Rtd217SQWqNiBjHWg9SM-428">
          <mxGeometry width="164" height="82" as="geometry" />
        </mxCell>
        <mxCell id="Rtd217SQWqNiBjHWg9SM-430" value="" style="endArrow=none;html=1;rounded=0;exitX=0;exitY=0.25;exitDx=0;exitDy=0;entryX=1;entryY=0.25;entryDx=0;entryDy=0;" edge="1" parent="Rtd217SQWqNiBjHWg9SM-428" source="Rtd217SQWqNiBjHWg9SM-429" target="Rtd217SQWqNiBjHWg9SM-429">
          <mxGeometry width="50" height="50" relative="1" as="geometry">
            <mxPoint x="54.66666666666667" y="68.33333333333333" as="sourcePoint" />
            <mxPoint x="123" as="targetPoint" />
          </mxGeometry>
        </mxCell>
        <mxCell id="Rtd217SQWqNiBjHWg9SM-431" value="" style="endArrow=none;html=1;rounded=0;exitX=0.25;exitY=0;exitDx=0;exitDy=0;" edge="1" parent="Rtd217SQWqNiBjHWg9SM-428" source="Rtd217SQWqNiBjHWg9SM-429">
          <mxGeometry width="50" height="50" relative="1" as="geometry">
            <mxPoint x="41" y="-6.833333333333334" as="sourcePoint" />
            <mxPoint x="41" y="20.5" as="targetPoint" />
          </mxGeometry>
        </mxCell>
        <mxCell id="Rtd217SQWqNiBjHWg9SM-432" value="Posztok" style="text;html=1;align=center;verticalAlign=middle;resizable=0;points=[];autosize=1;strokeColor=none;fillColor=none;" vertex="1" parent="Rtd217SQWqNiBjHWg9SM-428">
          <mxGeometry x="64.99666666666667" y="-5.003333333333334" width="70" height="30" as="geometry" />
        </mxCell>
        <mxCell id="Rtd217SQWqNiBjHWg9SM-433" value="&lt;font style=&quot;font-size: 11px;&quot;&gt;2.1&lt;/font&gt;" style="text;html=1;align=center;verticalAlign=middle;resizable=0;points=[];autosize=1;strokeColor=none;fillColor=none;" vertex="1" parent="Rtd217SQWqNiBjHWg9SM-428">
          <mxGeometry x="3" y="-5" width="40" height="30" as="geometry" />
        </mxCell>
        <mxCell id="Rtd217SQWqNiBjHWg9SM-434" value="" style="endArrow=classic;startArrow=classic;html=1;rounded=0;entryX=0.5;entryY=1;entryDx=0;entryDy=0;" edge="1" parent="1" source="Rtd217SQWqNiBjHWg9SM-346" target="Rtd217SQWqNiBjHWg9SM-345">
          <mxGeometry width="50" height="50" relative="1" as="geometry">
            <mxPoint x="238" y="490" as="sourcePoint" />
            <mxPoint x="288" y="440" as="targetPoint" />
          </mxGeometry>
        </mxCell>
        <mxCell id="Rtd217SQWqNiBjHWg9SM-435" value="Üzenetváltás" style="text;html=1;align=center;verticalAlign=middle;whiteSpace=wrap;rounded=0;rotation=-90;" vertex="1" parent="1">
          <mxGeometry x="252" y="412" width="60" height="30" as="geometry" />
        </mxCell>
        <mxCell id="Rtd217SQWqNiBjHWg9SM-436" value="" style="endArrow=classic;html=1;rounded=0;exitX=0.695;exitY=0.963;exitDx=0;exitDy=0;entryX=0.692;entryY=0.054;entryDx=0;entryDy=0;entryPerimeter=0;exitPerimeter=0;" edge="1" parent="1" source="Rtd217SQWqNiBjHWg9SM-345" target="Rtd217SQWqNiBjHWg9SM-346">
          <mxGeometry width="50" height="50" relative="1" as="geometry">
            <mxPoint x="378" y="430" as="sourcePoint" />
            <mxPoint x="428" y="380" as="targetPoint" />
          </mxGeometry>
        </mxCell>
        <mxCell id="Rtd217SQWqNiBjHWg9SM-437" value="" style="endArrow=classic;html=1;rounded=0;entryX=1;entryY=1;entryDx=0;entryDy=0;exitX=1;exitY=0;exitDx=0;exitDy=0;" edge="1" parent="1" source="Rtd217SQWqNiBjHWg9SM-346" target="Rtd217SQWqNiBjHWg9SM-345">
          <mxGeometry width="50" height="50" relative="1" as="geometry">
            <mxPoint x="318" y="480" as="sourcePoint" />
            <mxPoint x="398" y="380" as="targetPoint" />
          </mxGeometry>
        </mxCell>
        <mxCell id="Rtd217SQWqNiBjHWg9SM-438" value="Ismerősnek jelölés" style="text;html=1;align=center;verticalAlign=middle;whiteSpace=wrap;rounded=0;rotation=-90;fontSize=9;" vertex="1" parent="1">
          <mxGeometry x="251" y="410" width="105.26" height="30" as="geometry" />
        </mxCell>
        <mxCell id="Rtd217SQWqNiBjHWg9SM-439" value="Ismerősnek visszajelöl, elutasít" style="text;html=1;align=center;verticalAlign=middle;resizable=0;points=[];autosize=1;strokeColor=none;fillColor=none;rotation=-90;fontSize=7;" vertex="1" parent="1">
          <mxGeometry x="272" y="424" width="120" height="20" as="geometry" />
        </mxCell>
        <mxCell id="Rtd217SQWqNiBjHWg9SM-441" value="" style="endArrow=classic;startArrow=classic;html=1;rounded=0;exitX=0.999;exitY=0.623;exitDx=0;exitDy=0;exitPerimeter=0;entryX=0;entryY=0.5;entryDx=0;entryDy=0;" edge="1" parent="1" source="Rtd217SQWqNiBjHWg9SM-345" target="Rtd217SQWqNiBjHWg9SM-340">
          <mxGeometry width="50" height="50" relative="1" as="geometry">
            <mxPoint x="474" y="310" as="sourcePoint" />
            <mxPoint x="524" y="260" as="targetPoint" />
          </mxGeometry>
        </mxCell>
        <mxCell id="Rtd217SQWqNiBjHWg9SM-442" value="Feladat, válasz" style="edgeLabel;html=1;align=center;verticalAlign=middle;resizable=0;points=[];rotation=0;fontSize=9;" vertex="1" connectable="0" parent="1">
          <mxGeometry x="378" y="353.9981818181818" as="geometry">
            <mxPoint x="3" y="-2" as="offset" />
          </mxGeometry>
        </mxCell>
        <mxCell id="Rtd217SQWqNiBjHWg9SM-446" value="" style="group" vertex="1" connectable="0" parent="1">
          <mxGeometry x="896" y="600" width="100" height="30" as="geometry" />
        </mxCell>
        <mxCell id="Rtd217SQWqNiBjHWg9SM-443" value="&amp;nbsp;D9" style="html=1;dashed=0;whiteSpace=wrap;shape=mxgraph.dfd.dataStoreID;align=left;spacingLeft=3;points=[[0,0],[0.5,0],[1,0],[0,0.5],[1,0.5],[0,1],[0.5,1],[1,1]];" vertex="1" parent="Rtd217SQWqNiBjHWg9SM-446">
          <mxGeometry width="100" height="30" as="geometry" />
        </mxCell>
        <mxCell id="Rtd217SQWqNiBjHWg9SM-444" value="" style="endArrow=none;html=1;rounded=0;entryX=0.078;entryY=0.005;entryDx=0;entryDy=0;entryPerimeter=0;exitX=0.077;exitY=1.001;exitDx=0;exitDy=0;exitPerimeter=0;" edge="1" parent="Rtd217SQWqNiBjHWg9SM-446">
          <mxGeometry width="50" height="50" relative="1" as="geometry">
            <mxPoint x="4.699999999999932" y="30" as="sourcePoint" />
            <mxPoint x="4.7999999999999545" y="0.12000000000000455" as="targetPoint" />
          </mxGeometry>
        </mxCell>
        <mxCell id="Rtd217SQWqNiBjHWg9SM-445" value="Értesítések" style="text;html=1;align=center;verticalAlign=middle;whiteSpace=wrap;rounded=0;" vertex="1" parent="Rtd217SQWqNiBjHWg9SM-446">
          <mxGeometry x="34" width="60" height="30" as="geometry" />
        </mxCell>
        <mxCell id="Rtd217SQWqNiBjHWg9SM-447" value="" style="endArrow=classic;html=1;rounded=0;entryX=0.299;entryY=0.004;entryDx=0;entryDy=0;entryPerimeter=0;" edge="1" parent="1" target="Rtd217SQWqNiBjHWg9SM-443">
          <mxGeometry width="50" height="50" relative="1" as="geometry">
            <mxPoint x="858" y="550" as="sourcePoint" />
            <mxPoint x="924" y="600" as="targetPoint" />
            <Array as="points">
              <mxPoint x="858" y="600" />
            </Array>
          </mxGeometry>
        </mxCell>
        <mxCell id="Rtd217SQWqNiBjHWg9SM-454" value="Bodnárt megkérdezni" style="text;html=1;align=center;verticalAlign=middle;resizable=0;points=[];autosize=1;strokeColor=none;fillColor=none;" vertex="1" parent="1">
          <mxGeometry x="900.5" y="346" width="140" height="30" as="geometry" />
        </mxCell>
        <mxCell id="Rtd217SQWqNiBjHWg9SM-455" value="" style="endArrow=classic;html=1;rounded=0;exitX=1;exitY=0;exitDx=0;exitDy=0;entryX=0.485;entryY=1.006;entryDx=0;entryDy=0;entryPerimeter=0;" edge="1" parent="1" source="Rtd217SQWqNiBjHWg9SM-429" target="Rtd217SQWqNiBjHWg9SM-340">
          <mxGeometry width="50" height="50" relative="1" as="geometry">
            <mxPoint x="494" y="590" as="sourcePoint" />
            <mxPoint x="544" y="540" as="targetPoint" />
            <Array as="points">
              <mxPoint x="374" y="600" />
              <mxPoint x="574" y="600" />
              <mxPoint x="574" y="560" />
            </Array>
          </mxGeometry>
        </mxCell>
        <mxCell id="Rtd217SQWqNiBjHWg9SM-456" value="" style="endArrow=classic;html=1;rounded=0;exitX=1;exitY=0;exitDx=0;exitDy=0;entryX=0.485;entryY=1.01;entryDx=0;entryDy=0;entryPerimeter=0;" edge="1" parent="1" source="Rtd217SQWqNiBjHWg9SM-405" target="Rtd217SQWqNiBjHWg9SM-340">
          <mxGeometry width="50" height="50" relative="1" as="geometry">
            <mxPoint x="504" y="590" as="sourcePoint" />
            <mxPoint x="554" y="540" as="targetPoint" />
            <Array as="points">
              <mxPoint x="548" y="610" />
              <mxPoint x="574" y="610" />
            </Array>
          </mxGeometry>
        </mxCell>
        <mxCell id="Rtd217SQWqNiBjHWg9SM-457" value="" style="endArrow=classic;html=1;rounded=0;exitX=1;exitY=0;exitDx=0;exitDy=0;entryX=0.485;entryY=1.007;entryDx=0;entryDy=0;entryPerimeter=0;" edge="1" parent="1" source="Rtd217SQWqNiBjHWg9SM-417" target="Rtd217SQWqNiBjHWg9SM-340">
          <mxGeometry width="50" height="50" relative="1" as="geometry">
            <mxPoint x="614" y="610" as="sourcePoint" />
            <mxPoint x="664" y="560" as="targetPoint" />
            <Array as="points">
              <mxPoint x="722" y="600" />
              <mxPoint x="574" y="600" />
            </Array>
          </mxGeometry>
        </mxCell>
        <mxCell id="Rtd217SQWqNiBjHWg9SM-476" value="Létrehoz, töröl, &lt;br&gt;módosít, válasz" style="text;html=1;align=center;verticalAlign=middle;resizable=0;points=[];autosize=1;strokeColor=none;fillColor=none;rotation=-90;fontSize=10;" vertex="1" parent="1">
          <mxGeometry x="232" y="560" width="90" height="40" as="geometry" />
        </mxCell>
        <mxCell id="Rtd217SQWqNiBjHWg9SM-484" value="" style="group" vertex="1" connectable="0" parent="1">
          <mxGeometry x="235" y="790" width="114" height="30" as="geometry" />
        </mxCell>
        <mxCell id="Rtd217SQWqNiBjHWg9SM-481" value="&amp;nbsp;D8" style="html=1;dashed=0;whiteSpace=wrap;shape=mxgraph.dfd.dataStoreID;align=left;spacingLeft=3;points=[[0,0],[0.5,0],[1,0],[0,0.5],[1,0.5],[0,1],[0.5,1],[1,1]];" vertex="1" parent="Rtd217SQWqNiBjHWg9SM-484">
          <mxGeometry width="100" height="30" as="geometry" />
        </mxCell>
        <mxCell id="Rtd217SQWqNiBjHWg9SM-482" value="" style="endArrow=none;html=1;rounded=0;entryX=0.078;entryY=0.005;entryDx=0;entryDy=0;entryPerimeter=0;exitX=0.077;exitY=1.001;exitDx=0;exitDy=0;exitPerimeter=0;" edge="1" parent="Rtd217SQWqNiBjHWg9SM-484">
          <mxGeometry width="50" height="50" relative="1" as="geometry">
            <mxPoint x="4.699999999999932" y="30" as="sourcePoint" />
            <mxPoint x="4.7999999999999545" y="0.11999999999989086" as="targetPoint" />
          </mxGeometry>
        </mxCell>
        <mxCell id="Rtd217SQWqNiBjHWg9SM-483" value="Fényképek" style="text;html=1;align=center;verticalAlign=middle;resizable=0;points=[];autosize=1;strokeColor=none;fillColor=none;" vertex="1" parent="Rtd217SQWqNiBjHWg9SM-484">
          <mxGeometry x="29" width="80" height="30" as="geometry" />
        </mxCell>
        <mxCell id="Rtd217SQWqNiBjHWg9SM-485" value="" style="endArrow=classic;startArrow=classic;html=1;rounded=0;exitX=0.346;exitY=-0.009;exitDx=0;exitDy=0;exitPerimeter=0;entryX=0.5;entryY=1;entryDx=0;entryDy=0;" edge="1" parent="1" source="Rtd217SQWqNiBjHWg9SM-483" target="Rtd217SQWqNiBjHWg9SM-429">
          <mxGeometry width="50" height="50" relative="1" as="geometry">
            <mxPoint x="279" y="770" as="sourcePoint" />
            <mxPoint x="329" y="720" as="targetPoint" />
          </mxGeometry>
        </mxCell>
        <mxCell id="Rtd217SQWqNiBjHWg9SM-486" value="Feltölt, módosít" style="edgeLabel;html=1;align=center;verticalAlign=middle;resizable=0;points=[];rotation=-90;fontSize=10;" vertex="1" connectable="0" parent="Rtd217SQWqNiBjHWg9SM-485">
          <mxGeometry x="0.0837" y="-1" relative="1" as="geometry">
            <mxPoint x="-12" y="4" as="offset" />
          </mxGeometry>
        </mxCell>
        <mxCell id="Rtd217SQWqNiBjHWg9SM-487" value="" style="endArrow=classic;startArrow=classic;html=1;rounded=0;entryX=0.523;entryY=0.999;entryDx=0;entryDy=0;entryPerimeter=0;exitX=1.001;exitY=0.348;exitDx=0;exitDy=0;exitPerimeter=0;" edge="1" parent="1" source="Rtd217SQWqNiBjHWg9SM-483" target="Rtd217SQWqNiBjHWg9SM-417">
          <mxGeometry width="50" height="50" relative="1" as="geometry">
            <mxPoint x="614" y="800" as="sourcePoint" />
            <mxPoint x="664" y="750" as="targetPoint" />
            <Array as="points">
              <mxPoint x="644" y="800" />
            </Array>
          </mxGeometry>
        </mxCell>
        <mxCell id="Rtd217SQWqNiBjHWg9SM-488" value="Feltölt, letöröl" style="edgeLabel;html=1;align=center;verticalAlign=middle;resizable=0;points=[];" vertex="1" connectable="0" parent="Rtd217SQWqNiBjHWg9SM-487">
          <mxGeometry x="-0.1439" relative="1" as="geometry">
            <mxPoint y="-9" as="offset" />
          </mxGeometry>
        </mxCell>
        <mxCell id="Rtd217SQWqNiBjHWg9SM-490" value="" style="endArrow=classic;html=1;rounded=0;exitX=0.75;exitY=1;exitDx=0;exitDy=0;entryX=0.486;entryY=0.998;entryDx=0;entryDy=0;entryPerimeter=0;" edge="1" parent="1" source="Rtd217SQWqNiBjHWg9SM-429" target="Rtd217SQWqNiBjHWg9SM-405">
          <mxGeometry width="50" height="50" relative="1" as="geometry">
            <mxPoint x="444" y="770" as="sourcePoint" />
            <mxPoint x="334" y="760" as="targetPoint" />
            <Array as="points">
              <mxPoint x="333" y="740" />
              <mxPoint x="464" y="740" />
            </Array>
          </mxGeometry>
        </mxCell>
        <mxCell id="Rtd217SQWqNiBjHWg9SM-491" value="Poszt létrehozása" style="edgeLabel;html=1;align=center;verticalAlign=middle;resizable=0;points=[];fontSize=11;" vertex="1" connectable="0" parent="Rtd217SQWqNiBjHWg9SM-490">
          <mxGeometry x="-0.0687" y="-1" relative="1" as="geometry">
            <mxPoint x="6" y="-11" as="offset" />
          </mxGeometry>
        </mxCell>
        <mxCell id="Rtd217SQWqNiBjHWg9SM-492" value="" style="endArrow=classic;html=1;rounded=0;exitX=1;exitY=0.5;exitDx=0;exitDy=0;entryX=0.5;entryY=0;entryDx=0;entryDy=0;" edge="1" parent="1" target="Rtd217SQWqNiBjHWg9SM-405">
          <mxGeometry width="50" height="50" relative="1" as="geometry">
            <mxPoint x="337.9999999999999" y="504" as="sourcePoint" />
            <mxPoint x="454" y="550" as="targetPoint" />
            <Array as="points">
              <mxPoint x="466" y="504" />
            </Array>
          </mxGeometry>
        </mxCell>
        <mxCell id="Rtd217SQWqNiBjHWg9SM-493" value="Létrehoz, csatlakozik" style="text;html=1;align=center;verticalAlign=middle;resizable=0;points=[];autosize=1;strokeColor=none;fillColor=none;" vertex="1" parent="1">
          <mxGeometry x="338" y="480" width="140" height="30" as="geometry" />
        </mxCell>
        <mxCell id="Rtd217SQWqNiBjHWg9SM-494" value="" style="endArrow=classic;html=1;rounded=0;exitX=1.005;exitY=0.636;exitDx=0;exitDy=0;exitPerimeter=0;entryX=0.5;entryY=0;entryDx=0;entryDy=0;" edge="1" parent="1" source="Rtd217SQWqNiBjHWg9SM-346" target="Rtd217SQWqNiBjHWg9SM-417">
          <mxGeometry width="50" height="50" relative="1" as="geometry">
            <mxPoint x="404" y="570" as="sourcePoint" />
            <mxPoint x="454" y="520" as="targetPoint" />
            <Array as="points">
              <mxPoint x="640" y="510" />
            </Array>
          </mxGeometry>
        </mxCell>
        <mxCell id="Rtd217SQWqNiBjHWg9SM-495" value="Létrehoz, feltölt" style="text;html=1;align=center;verticalAlign=middle;resizable=0;points=[];autosize=1;strokeColor=none;fillColor=none;" vertex="1" parent="1">
          <mxGeometry x="464" y="502" width="110" height="30" as="geometry" />
        </mxCell>
        <mxCell id="Rtd217SQWqNiBjHWg9SM-496" value="" style="endArrow=classic;startArrow=classic;html=1;rounded=0;entryX=0;entryY=1;entryDx=0;entryDy=0;exitX=0;exitY=0;exitDx=0;exitDy=0;" edge="1" parent="1" source="Rtd217SQWqNiBjHWg9SM-346" target="Rtd217SQWqNiBjHWg9SM-345">
          <mxGeometry width="50" height="50" relative="1" as="geometry">
            <mxPoint x="264" y="480" as="sourcePoint" />
            <mxPoint x="274" y="410" as="targetPoint" />
          </mxGeometry>
        </mxCell>
        <mxCell id="Rtd217SQWqNiBjHWg9SM-497" value="Töröl" style="text;html=1;align=center;verticalAlign=middle;resizable=0;points=[];autosize=1;strokeColor=none;fillColor=none;rotation=-90;" vertex="1" parent="1">
          <mxGeometry x="227" y="410" width="50" height="30" as="geometry" />
        </mxCell>
        <mxCell id="Rtd217SQWqNiBjHWg9SM-500" value="" style="endArrow=classic;html=1;rounded=0;exitX=0.5;exitY=1;exitDx=0;exitDy=0;" edge="1" parent="1" source="Rtd217SQWqNiBjHWg9SM-401" target="Rtd217SQWqNiBjHWg9SM-340">
          <mxGeometry width="50" height="50" relative="1" as="geometry">
            <mxPoint x="684" y="300" as="sourcePoint" />
            <mxPoint x="734" y="250" as="targetPoint" />
          </mxGeometry>
        </mxCell>
        <mxCell id="Rtd217SQWqNiBjHWg9SM-501" value="Adminisztrál" style="text;html=1;align=center;verticalAlign=middle;resizable=0;points=[];autosize=1;strokeColor=none;fillColor=none;rotation=-90;fontSize=10;" vertex="1" parent="1">
          <mxGeometry x="528" y="267" width="80" height="30" as="geometry" />
        </mxCell>
        <mxCell id="Rtd217SQWqNiBjHWg9SM-502" value="Feladat, válasz" style="text;html=1;align=center;verticalAlign=middle;resizable=0;points=[];autosize=1;strokeColor=none;fillColor=none;rotation=-90;" vertex="1" parent="1">
          <mxGeometry x="514" y="442" width="100" height="30" as="geometry" />
        </mxCell>
        <mxCell id="Rtd217SQWqNiBjHWg9SM-504" value="" style="group" vertex="1" connectable="0" parent="1">
          <mxGeometry x="211" y="150.00333333333333" width="164" height="82" as="geometry" />
        </mxCell>
        <mxCell id="Rtd217SQWqNiBjHWg9SM-505" value="Értesítések küldése" style="rounded=0;whiteSpace=wrap;html=1;" vertex="1" parent="Rtd217SQWqNiBjHWg9SM-504">
          <mxGeometry width="164" height="82" as="geometry" />
        </mxCell>
        <mxCell id="Rtd217SQWqNiBjHWg9SM-506" value="" style="endArrow=none;html=1;rounded=0;exitX=0;exitY=0.25;exitDx=0;exitDy=0;entryX=1;entryY=0.25;entryDx=0;entryDy=0;" edge="1" parent="Rtd217SQWqNiBjHWg9SM-504" source="Rtd217SQWqNiBjHWg9SM-505" target="Rtd217SQWqNiBjHWg9SM-505">
          <mxGeometry width="50" height="50" relative="1" as="geometry">
            <mxPoint x="54.66666666666667" y="68.33333333333333" as="sourcePoint" />
            <mxPoint x="123" as="targetPoint" />
          </mxGeometry>
        </mxCell>
        <mxCell id="Rtd217SQWqNiBjHWg9SM-507" value="" style="endArrow=none;html=1;rounded=0;exitX=0.25;exitY=0;exitDx=0;exitDy=0;" edge="1" parent="Rtd217SQWqNiBjHWg9SM-504" source="Rtd217SQWqNiBjHWg9SM-505">
          <mxGeometry width="50" height="50" relative="1" as="geometry">
            <mxPoint x="41" y="-6.833333333333334" as="sourcePoint" />
            <mxPoint x="41" y="20.5" as="targetPoint" />
          </mxGeometry>
        </mxCell>
        <mxCell id="Rtd217SQWqNiBjHWg9SM-508" value="&lt;font face=&quot;Helvetica&quot; style=&quot;font-size: 12px;&quot;&gt;Értesítések&lt;/font&gt;" style="text;html=1;align=center;verticalAlign=middle;resizable=0;points=[];autosize=1;strokeColor=none;fillColor=none;" vertex="1" parent="Rtd217SQWqNiBjHWg9SM-504">
          <mxGeometry x="59.99666666666667" y="-5.003333333333334" width="80" height="30" as="geometry" />
        </mxCell>
        <mxCell id="Rtd217SQWqNiBjHWg9SM-509" value="&lt;font style=&quot;font-size: 11px;&quot;&gt;2.4&lt;/font&gt;" style="text;html=1;align=center;verticalAlign=middle;resizable=0;points=[];autosize=1;strokeColor=none;fillColor=none;" vertex="1" parent="Rtd217SQWqNiBjHWg9SM-504">
          <mxGeometry x="3" y="-5" width="40" height="30" as="geometry" />
        </mxCell>
        <mxCell id="Rtd217SQWqNiBjHWg9SM-511" value="" style="endArrow=classic;html=1;rounded=0;exitX=0.5;exitY=1;exitDx=0;exitDy=0;entryX=0.5;entryY=0;entryDx=0;entryDy=0;" edge="1" parent="1" source="Rtd217SQWqNiBjHWg9SM-505" target="Rtd217SQWqNiBjHWg9SM-345">
          <mxGeometry width="50" height="50" relative="1" as="geometry">
            <mxPoint x="304" y="310" as="sourcePoint" />
            <mxPoint x="354" y="260" as="targetPoint" />
          </mxGeometry>
        </mxCell>
        <mxCell id="Rtd217SQWqNiBjHWg9SM-512" value="Értesítés küldése" style="text;html=1;align=center;verticalAlign=middle;resizable=0;points=[];autosize=1;strokeColor=none;fillColor=none;rotation=-90;fontSize=10;" vertex="1" parent="1">
          <mxGeometry x="232" y="260" width="100" height="30" as="geometry" />
        </mxCell>
        <mxCell id="Rtd217SQWqNiBjHWg9SM-513" value="" style="endArrow=classic;html=1;rounded=0;exitX=0;exitY=0.5;exitDx=0;exitDy=0;entryX=0;entryY=0.5;entryDx=0;entryDy=0;" edge="1" parent="1" source="Rtd217SQWqNiBjHWg9SM-346" target="Rtd217SQWqNiBjHWg9SM-481">
          <mxGeometry width="50" height="50" relative="1" as="geometry">
            <mxPoint x="60" y="600" as="sourcePoint" />
            <mxPoint x="110" y="550" as="targetPoint" />
            <Array as="points">
              <mxPoint x="160" y="502" />
              <mxPoint x="160" y="805" />
            </Array>
          </mxGeometry>
        </mxCell>
        <mxCell id="Rtd217SQWqNiBjHWg9SM-514" value="Feltölt, töröl" style="text;html=1;align=center;verticalAlign=middle;resizable=0;points=[];autosize=1;strokeColor=none;fillColor=none;rotation=-90;" vertex="1" parent="1">
          <mxGeometry x="100" y="630" width="90" height="30" as="geometry" />
        </mxCell>
        <mxCell id="Rtd217SQWqNiBjHWg9SM-516" value="" style="endArrow=classic;startArrow=classic;html=1;rounded=0;entryX=0.5;entryY=1;entryDx=0;entryDy=0;exitX=0.5;exitY=0;exitDx=0;exitDy=0;" edge="1" parent="1" source="Rtd217SQWqNiBjHWg9SM-429" target="Rtd217SQWqNiBjHWg9SM-346">
          <mxGeometry width="50" height="50" relative="1" as="geometry">
            <mxPoint x="300" y="620" as="sourcePoint" />
            <mxPoint x="350" y="570" as="targetPoint" />
          </mxGeometry>
        </mxCell>
        <mxCell id="Rtd217SQWqNiBjHWg9SM-520" value="" style="group" vertex="1" connectable="0" parent="1">
          <mxGeometry x="100" y="830" width="114" height="30.000000000000057" as="geometry" />
        </mxCell>
        <mxCell id="Rtd217SQWqNiBjHWg9SM-521" value="&amp;nbsp;D5" style="html=1;dashed=0;whiteSpace=wrap;shape=mxgraph.dfd.dataStoreID;align=left;spacingLeft=3;points=[[0,0],[0.5,0],[1,0],[0,0.5],[1,0.5],[0,1],[0.5,1],[1,1]];" vertex="1" parent="Rtd217SQWqNiBjHWg9SM-520">
          <mxGeometry width="100" height="30" as="geometry" />
        </mxCell>
        <mxCell id="Rtd217SQWqNiBjHWg9SM-522" value="" style="endArrow=none;html=1;rounded=0;entryX=0.078;entryY=0.005;entryDx=0;entryDy=0;entryPerimeter=0;exitX=0.077;exitY=1.001;exitDx=0;exitDy=0;exitPerimeter=0;" edge="1" parent="Rtd217SQWqNiBjHWg9SM-520">
          <mxGeometry width="50" height="50" relative="1" as="geometry">
            <mxPoint x="4.699999999999932" y="30.000000000000057" as="sourcePoint" />
            <mxPoint x="4.7999999999999545" y="0.12000000000000455" as="targetPoint" />
          </mxGeometry>
        </mxCell>
        <mxCell id="Rtd217SQWqNiBjHWg9SM-523" value="Kommentek" style="text;html=1;align=center;verticalAlign=middle;resizable=0;points=[];autosize=1;strokeColor=none;fillColor=none;" vertex="1" parent="Rtd217SQWqNiBjHWg9SM-520">
          <mxGeometry x="24" width="90" height="30" as="geometry" />
        </mxCell>
        <mxCell id="Rtd217SQWqNiBjHWg9SM-528" value="" style="endArrow=classic;startArrow=classic;html=1;rounded=0;entryX=0.25;entryY=1;entryDx=0;entryDy=0;exitX=0.5;exitY=0;exitDx=0;exitDy=0;" edge="1" parent="1" source="Rtd217SQWqNiBjHWg9SM-521" target="Rtd217SQWqNiBjHWg9SM-429">
          <mxGeometry width="50" height="50" relative="1" as="geometry">
            <mxPoint x="200" y="780" as="sourcePoint" />
            <mxPoint x="250" y="730" as="targetPoint" />
            <Array as="points">
              <mxPoint x="150" y="760" />
              <mxPoint x="250" y="760" />
            </Array>
          </mxGeometry>
        </mxCell>
        <mxCell id="Rtd217SQWqNiBjHWg9SM-530" value="Feladat, válasz" style="text;html=1;align=center;verticalAlign=middle;resizable=0;points=[];autosize=1;strokeColor=none;fillColor=none;fontSize=10;" vertex="1" parent="1">
          <mxGeometry x="163" y="737" width="90" height="30" as="geometry" />
        </mxCell>
        <mxCell id="Rtd217SQWqNiBjHWg9SM-531" value="" style="endArrow=classic;html=1;rounded=0;exitX=1;exitY=1;exitDx=0;exitDy=0;entryX=0.702;entryY=0.007;entryDx=0;entryDy=0;entryPerimeter=0;" edge="1" parent="1" source="Rtd217SQWqNiBjHWg9SM-346" target="Rtd217SQWqNiBjHWg9SM-429">
          <mxGeometry width="50" height="50" relative="1" as="geometry">
            <mxPoint x="350" y="600" as="sourcePoint" />
            <mxPoint x="400" y="550" as="targetPoint" />
          </mxGeometry>
        </mxCell>
        <mxCell id="Rtd217SQWqNiBjHWg9SM-532" value="Kommentel" style="text;html=1;align=center;verticalAlign=middle;resizable=0;points=[];autosize=1;strokeColor=none;fillColor=none;fontSize=11;rotation=-90;" vertex="1" parent="1">
          <mxGeometry x="277" y="560" width="80" height="30" as="geometry" />
        </mxCell>
      </root>
    </mxGraphModel>
  </diagram>
</mxfile>
